<svg width="148" height="148" viewBox="0 0 148 148" fill="none" xmlns="http://www.w3.org/2000/svg">
<g filter="url(#filter0_d_438_1537)">
<path d="M70.5671 0.697334L9.32432 26.9499C5.49664 28.5907 3.36408 32.6926 4.21164 36.7399C5.0592 40.7872 8.61347 43.7406 12.7692 43.7406V45.9283C12.7692 49.5654 15.6947 52.4915 19.331 52.4915H128.693C132.329 52.4915 135.255 49.5654 135.255 45.9283V43.7406C139.411 43.7406 142.992 40.8145 143.812 36.7399C144.633 32.6653 142.5 28.5633 138.7 26.9499L77.457 0.697334C75.2697 -0.232445 72.7544 -0.232445 70.5671 0.697334ZM39.0161 61.2423H21.5182V114.923C21.3542 115.005 21.1901 115.115 21.0261 115.224L7.90261 123.975C4.70377 126.108 3.25472 130.101 4.37568 133.792C5.49665 137.484 8.91421 140 12.7692 140H135.255C139.11 140 142.5 137.484 143.621 133.792C144.742 130.101 143.32 126.108 140.094 123.975L126.971 115.224C126.807 115.115 126.643 115.033 126.479 114.923V61.2423H109.008V113.747H98.0717V61.2423H80.5738V113.747H67.4503V61.2423H49.9524V113.747H39.0161V61.2423ZM74.012 17.488C76.3324 17.488 78.5577 18.41 80.1985 20.0511C81.8392 21.6922 82.761 23.918 82.761 26.2389C82.761 28.5598 81.8392 30.7856 80.1985 32.4267C78.5577 34.0678 76.3324 34.9897 74.012 34.9897C71.6917 34.9897 69.4663 34.0678 67.8256 32.4267C66.1848 30.7856 65.2631 28.5598 65.2631 26.2389C65.2631 23.918 66.1848 21.6922 67.8256 20.0511C69.4663 18.41 71.6917 17.488 74.012 17.488Z" fill="white"/>
</g>
<defs>
<filter id="filter0_d_438_1537" x="0" y="0" width="148" height="148" filterUnits="userSpaceOnUse" color-interpolation-filters="sRGB">
<feFlood flood-opacity="0" result="BackgroundImageFix"/>
<feColorMatrix in="SourceAlpha" type="matrix" values="0 0 0 0 0 0 0 0 0 0 0 0 0 0 0 0 0 0 127 0" result="hardAlpha"/>
<feOffset dy="4"/>
<feGaussianBlur stdDeviation="2"/>
<feComposite in2="hardAlpha" operator="out"/>
<feColorMatrix type="matrix" values="0 0 0 0 0.756863 0 0 0 0 0.560784 0 0 0 0 0.34902 0 0 0 0.5 0"/>
<feBlend mode="normal" in2="BackgroundImageFix" result="effect1_dropShadow_438_1537"/>
<feBlend mode="normal" in="SourceGraphic" in2="effect1_dropShadow_438_1537" result="shape"/>
</filter>
</defs>
</svg>
