<svg width="27" height="36" viewBox="0 0 27 36" fill="none" xmlns="http://www.w3.org/2000/svg">
<path d="M12.4756 18.0068C12.1338 16.9131 12.1406 14.8008 12.3389 14.8008C12.9131 14.8008 12.8584 17.3232 12.4756 18.0068ZM12.3594 21.2334C11.833 22.6143 11.1768 24.1934 10.418 25.5195C11.6689 25.041 13.084 24.3438 14.7178 24.0225C13.8496 23.3662 13.0156 22.4228 12.3594 21.2334ZM5.92676 29.7646C5.92676 29.8193 6.8291 29.3955 8.3125 27.0166C7.85449 27.4473 6.32324 28.6914 5.92676 29.7646ZM16.9941 11.4375H26.291V33.8594C26.291 34.7686 25.5596 35.5 24.6504 35.5H1.68164C0.772461 35.5 0.0410156 34.7686 0.0410156 33.8594V2.14062C0.0410156 1.23145 0.772461 0.5 1.68164 0.5H15.3535V9.79688C15.3535 10.6992 16.0918 11.4375 16.9941 11.4375ZM16.4473 23.1816C15.0801 22.3477 14.1709 21.1992 13.5283 19.5039C13.8359 18.2393 14.3213 16.3184 13.9521 15.1152C13.6309 13.1055 11.0537 13.3037 10.6846 14.6504C10.3428 15.9014 10.6572 17.665 11.2383 19.9141C10.4453 21.8008 9.27637 24.3301 8.44922 25.7793C8.44238 25.7793 8.44238 25.7861 8.43555 25.7861C6.58301 26.7363 3.4043 28.8281 4.70996 30.4346C5.09277 30.9062 5.80371 31.1182 6.17969 31.1182C7.40332 31.1182 8.62012 29.8877 10.3564 26.8936C12.1201 26.3125 14.0547 25.5879 15.7568 25.3076C17.2402 26.1143 18.9766 26.6406 20.1318 26.6406C22.1279 26.6406 22.2646 24.4531 21.4785 23.6738C20.5283 22.7441 17.7666 23.0107 16.4473 23.1816ZM25.8125 7.67773L19.1133 0.978516C18.8057 0.670898 18.3887 0.5 17.9512 0.5H17.541V9.25H26.291V8.83301C26.291 8.40234 26.1201 7.98535 25.8125 7.67773ZM20.7471 25.1299C21.0273 24.9453 20.5762 24.3164 17.8213 24.5146C20.3574 25.5947 20.7471 25.1299 20.7471 25.1299Z" fill="#AB8219"/>
</svg>
