<svg width="31" height="40" viewBox="0 0 31 40" fill="none" xmlns="http://www.w3.org/2000/svg">
<path d="M14.9609 20.0078C14.5703 18.7578 14.5781 16.3438 14.8047 16.3438C15.4609 16.3438 15.3984 19.2266 14.9609 20.0078ZM14.8281 23.6953C14.2266 25.2734 13.4766 27.0781 12.6094 28.5938C14.0391 28.0469 15.6562 27.25 17.5234 26.8828C16.5312 26.1328 15.5781 25.0547 14.8281 23.6953ZM7.47656 33.4453C7.47656 33.5078 8.50781 33.0234 10.2031 30.3047C9.67969 30.7969 7.92969 32.2188 7.47656 33.4453ZM20.125 12.5H30.75V38.125C30.75 39.1641 29.9141 40 28.875 40H2.625C1.58594 40 0.75 39.1641 0.75 38.125V1.875C0.75 0.835938 1.58594 0 2.625 0H18.25V10.625C18.25 11.6562 19.0938 12.5 20.125 12.5ZM19.5 25.9219C17.9375 24.9688 16.8984 23.6562 16.1641 21.7188C16.5156 20.2734 17.0703 18.0781 16.6484 16.7031C16.2812 14.4062 13.3359 14.6328 12.9141 16.1719C12.5234 17.6016 12.8828 19.6172 13.5469 22.1875C12.6406 24.3438 11.3047 27.2344 10.3594 28.8906C10.3516 28.8906 10.3516 28.8984 10.3438 28.8984C8.22656 29.9844 4.59375 32.375 6.08594 34.2109C6.52344 34.75 7.33594 34.9922 7.76562 34.9922C9.16406 34.9922 10.5547 33.5859 12.5391 30.1641C14.5547 29.5 16.7656 28.6719 18.7109 28.3516C20.4062 29.2734 22.3906 29.875 23.7109 29.875C25.9922 29.875 26.1484 27.375 25.25 26.4844C24.1641 25.4219 21.0078 25.7266 19.5 25.9219ZM30.2031 8.20312L22.5469 0.546875C22.1953 0.195312 21.7188 0 21.2188 0H20.75V10H30.75V9.52344C30.75 9.03125 30.5547 8.55469 30.2031 8.20312ZM24.4141 28.1484C24.7344 27.9375 24.2188 27.2188 21.0703 27.4453C23.9688 28.6797 24.4141 28.1484 24.4141 28.1484Z" fill="#C18F59"/>
</svg>
