<svg width="40" height="40" viewBox="0 0 40 40" fill="none" xmlns="http://www.w3.org/2000/svg">
<g clip-path="url(#clip0_902_3527)">
<path d="M34.6883 3.89842C33.6961 2.98436 29.6805 0.0702962 20.7274 0.0312337C20.7274 0.0312337 10.1727 -0.601579 5.03206 4.11717C2.17269 6.97655 1.16487 11.1719 1.0555 16.3672C0.946124 21.5625 0.813311 31.2969 10.1961 33.9375H10.2039L10.1961 37.9687C10.1961 37.9687 10.1336 39.6015 11.2117 39.9297C12.5086 40.3359 13.2742 39.0937 14.5164 37.7578C15.1961 37.0234 16.1336 35.9453 16.8446 35.125C23.2664 35.664 28.1961 34.4297 28.7586 34.25C30.0555 33.8281 37.3914 32.8906 38.5789 23.1562C39.8133 13.1094 37.9852 6.76561 34.6883 3.89842ZM35.7743 22.4219C34.7664 30.5469 28.8211 31.0625 27.7274 31.414C27.2586 31.5625 22.9227 32.6406 17.4774 32.289C17.4774 32.289 13.4149 37.1875 12.1492 38.4609C11.7352 38.875 11.2821 38.8359 11.2899 38.0156C11.2899 37.4765 11.3211 31.3203 11.3211 31.3203C11.3133 31.3203 11.3133 31.3203 11.3211 31.3203C3.368 29.1172 3.83675 20.8281 3.92269 16.4922C4.00862 12.1562 4.82894 8.60155 7.25081 6.21092C11.6024 2.26561 20.5633 2.85155 20.5633 2.85155C28.1336 2.8828 31.7586 5.16405 32.6024 5.92967C35.3914 8.3203 36.8133 14.039 35.7743 22.4219ZM24.9149 16.1094C24.9461 16.7812 23.9383 16.8281 23.9071 16.1562C23.8211 14.4375 23.0164 13.6015 21.3602 13.5078C20.6883 13.4687 20.7508 12.4609 21.4149 12.5C23.5946 12.6172 24.8055 13.8672 24.9149 16.1094ZM26.5008 16.9922C26.5789 13.6797 24.5086 11.0859 20.5789 10.7969C19.9149 10.75 19.9852 9.74217 20.6492 9.78905C25.1805 10.1172 27.5946 13.2344 27.5086 17.0156C27.5008 17.6875 26.4852 17.6562 26.5008 16.9922ZM30.1727 18.039C30.1805 18.7109 29.1649 18.7187 29.1649 18.0469C29.118 11.6797 24.8758 8.21092 19.7274 8.17186C19.0633 8.16405 19.0633 7.16405 19.7274 7.16405C25.4852 7.20311 30.118 11.1797 30.1727 18.039ZM29.2899 25.7031V25.7187C28.4461 27.2031 26.868 28.8437 25.243 28.3203L25.2274 28.2969C23.5789 27.8359 19.6961 25.8359 17.243 23.8828C15.9774 22.8828 14.8211 21.7031 13.9305 20.5703C13.1258 19.5625 12.3133 18.3672 11.5242 16.9297C9.86019 13.9219 9.493 12.5781 9.493 12.5781C8.96956 10.9531 10.6024 9.37498 12.0946 8.53123H12.1102C12.8289 8.15623 13.5164 8.28123 13.9774 8.83592C13.9774 8.83592 14.9461 9.99217 15.3602 10.5625C15.7508 11.0937 16.2742 11.9453 16.5477 12.4219C17.0242 13.2734 16.7274 14.1406 16.2586 14.5L15.3211 15.25C14.8446 15.6328 14.9071 16.3437 14.9071 16.3437C14.9071 16.3437 16.2977 21.6015 21.493 22.9297C21.493 22.9297 22.2039 22.9922 22.5868 22.5156L23.3368 21.5781C23.6961 21.1094 24.5633 20.8125 25.4149 21.289C26.5633 21.9375 28.0243 22.9453 28.993 23.8594C29.5399 24.3047 29.6649 24.9844 29.2899 25.7031Z" fill="white"/>
</g>
<defs>
<clipPath id="clip0_902_3527">
<rect width="40" height="40" fill="white"/>
</clipPath>
</defs>
</svg>
